<svg xmlns="http://www.w3.org/2000/svg" xmlns:xlink="http://www.w3.org/1999/xlink" width="300" zoomAndPan="magnify" viewBox="0 0 224.87999 239.999995" height="320" preserveAspectRatio="xMidYMid meet" version="1.0"><defs><clipPath id="6b403b7a1d"><path d="M 7.914062 117.460938 L 45.394531 117.460938 L 45.394531 154.941406 L 7.914062 154.941406 Z M 7.914062 117.460938 " clip-rule="nonzero"/></clipPath><clipPath id="30bf6dee69"><path d="M 18 128 L 45.394531 128 L 45.394531 154.941406 L 18 154.941406 Z M 18 128 " clip-rule="nonzero"/></clipPath><clipPath id="da00549edd"><path d="M 7.546875 173.824219 L 45.023438 173.824219 L 45.023438 211.304688 L 7.546875 211.304688 Z M 7.546875 173.824219 " clip-rule="nonzero"/></clipPath><clipPath id="fc8b3cbe66"><path d="M 9 173.824219 L 43 173.824219 L 43 205 L 9 205 Z M 9 173.824219 " clip-rule="nonzero"/></clipPath><clipPath id="0e35775674"><path d="M 7.546875 184 L 45.023438 184 L 45.023438 211.304688 L 7.546875 211.304688 Z M 7.546875 184 " clip-rule="nonzero"/></clipPath><clipPath id="d0b4ccf97f"><path d="M 7.914062 4.5625 L 45.394531 4.5625 L 45.394531 42.042969 L 7.914062 42.042969 Z M 7.914062 4.5625 " clip-rule="nonzero"/></clipPath><clipPath id="06a3574374"><path d="M 63.546875 89.277344 L 101.027344 89.277344 L 101.027344 126.757812 L 63.546875 126.757812 Z M 63.546875 89.277344 " clip-rule="nonzero"/></clipPath><clipPath id="69483d5deb"><path d="M 74 99 L 101.027344 99 L 101.027344 126.757812 L 74 126.757812 Z M 74 99 " clip-rule="nonzero"/></clipPath><clipPath id="b331380c9a"><path d="M 63.546875 33.292969 L 101.027344 33.292969 L 101.027344 70.773438 L 63.546875 70.773438 Z M 63.546875 33.292969 " clip-rule="nonzero"/></clipPath><clipPath id="59b4bd0232"><path d="M 65 33.292969 L 99 33.292969 L 99 64 L 65 64 Z M 65 33.292969 " clip-rule="nonzero"/></clipPath><clipPath id="4c3c589564"><path d="M 63.546875 44 L 101.027344 44 L 101.027344 70.773438 L 63.546875 70.773438 Z M 63.546875 44 " clip-rule="nonzero"/></clipPath><clipPath id="6213cc85f6"><path d="M 63.546875 145.449219 L 101.027344 145.449219 L 101.027344 182.929688 L 63.546875 182.929688 Z M 63.546875 145.449219 " clip-rule="nonzero"/></clipPath><clipPath id="b77dd725ca"><path d="M 120.089844 173.824219 L 157.570312 173.824219 L 157.570312 211.304688 L 120.089844 211.304688 Z M 120.089844 173.824219 " clip-rule="nonzero"/></clipPath><clipPath id="5d7d8ac5cf"><path d="M 130 184 L 157.570312 184 L 157.570312 211.304688 L 130 211.304688 Z M 130 184 " clip-rule="nonzero"/></clipPath><clipPath id="c2fa8bb7a2"><path d="M 119.339844 117.460938 L 156.820312 117.460938 L 156.820312 154.941406 L 119.339844 154.941406 Z M 119.339844 117.460938 " clip-rule="nonzero"/></clipPath><clipPath id="577f856766"><path d="M 119.339844 61.472656 L 156.820312 61.472656 L 156.820312 98.953125 L 119.339844 98.953125 Z M 119.339844 61.472656 " clip-rule="nonzero"/></clipPath><clipPath id="8e0ca81228"><path d="M 121 61.472656 L 155 61.472656 L 155 92 L 121 92 Z M 121 61.472656 " clip-rule="nonzero"/></clipPath><clipPath id="4390653c1a"><path d="M 119.339844 72 L 156.820312 72 L 156.820312 98.953125 L 119.339844 98.953125 Z M 119.339844 72 " clip-rule="nonzero"/></clipPath><clipPath id="4591b80ed3"><path d="M 174.574219 202.457031 L 212.054688 202.457031 L 212.054688 239.933594 L 174.574219 239.933594 Z M 174.574219 202.457031 " clip-rule="nonzero"/></clipPath><clipPath id="87fc34e9fc"><path d="M 176 202.457031 L 210 202.457031 L 210 233 L 176 233 Z M 176 202.457031 " clip-rule="nonzero"/></clipPath><clipPath id="c2c01d75cd"><path d="M 174.574219 213 L 212.054688 213 L 212.054688 239.933594 L 174.574219 239.933594 Z M 174.574219 213 " clip-rule="nonzero"/></clipPath><clipPath id="1116ebdbb9"><path d="M 174.574219 89.277344 L 212.054688 89.277344 L 212.054688 126.757812 L 174.574219 126.757812 Z M 174.574219 89.277344 " clip-rule="nonzero"/></clipPath><clipPath id="4a37d64a85"><path d="M 185 99 L 212.054688 99 L 212.054688 126.757812 L 185 126.757812 Z M 185 99 " clip-rule="nonzero"/></clipPath><clipPath id="34dd90a5fc"><path d="M 170.910156 33.292969 L 208.390625 33.292969 L 208.390625 70.773438 L 170.910156 70.773438 Z M 170.910156 33.292969 " clip-rule="nonzero"/></clipPath><clipPath id="8adbf8e29d"><path d="M 173 33.292969 L 207 33.292969 L 207 64 L 173 64 Z M 173 33.292969 " clip-rule="nonzero"/></clipPath><clipPath id="0b290dfb6e"><path d="M 170.910156 44 L 208.390625 44 L 208.390625 70.773438 L 170.910156 70.773438 Z M 170.910156 44 " clip-rule="nonzero"/></clipPath></defs><g clip-path="url(#6b403b7a1d)"><path stroke-linecap="butt" transform="matrix(1.561667, 0, 0, 1.561667, 7.915183, 117.460233)" fill="none" stroke-linejoin="miter" d="M 19.959929 11.479074 C 19.959929 13.810317 19.021928 15.91644 17.501117 17.45226 C 16.933314 18.025065 16.282967 18.517828 15.572589 18.910537 C 14.359442 19.578394 12.966198 19.961098 11.480406 19.961098 C 6.797908 19.961098 3.000883 16.164073 3.000883 11.479074 C 3.000883 6.796576 6.797908 2.999551 11.480406 2.999551 C 16.162903 2.999551 19.959929 6.796576 19.959929 11.479074 Z M 19.959929 11.479074 " stroke="#333333" stroke-width="2" stroke-opacity="1" stroke-miterlimit="4"/></g><g clip-path="url(#30bf6dee69)"><path stroke-linecap="round" transform="matrix(1.561667, 0, 0, 1.561667, 7.915183, 117.460233)" fill="none" stroke-linejoin="miter" d="M 18.156467 18.155134 L 21.885956 21.887125 " stroke="#333333" stroke-width="2" stroke-opacity="1" stroke-miterlimit="4"/></g><g clip-path="url(#da00549edd)"><path stroke-linecap="round" transform="matrix(1.561666, 0, 0, 1.561666, 7.545315, 173.823244)" fill="none" stroke-linejoin="miter" d="M 5.874132 12.57233 C 5.30883 11.249124 5.001166 9.840873 5.001166 8.515166 C 5.001166 4.915746 8.132837 1.99919 11.9999 1.99919 C 15.866963 1.99919 19.001135 4.915746 19.001135 8.515166 C 19.001135 12.08457 16.764942 16.249292 13.280583 17.740087 C 12.467649 18.087773 11.53215 18.087773 10.719217 17.740087 C 9.606123 17.264834 8.620597 16.514433 7.795157 15.598945 " stroke="#1c274c" stroke-width="1.5" stroke-opacity="1" stroke-miterlimit="4"/></g><g clip-path="url(#fc8b3cbe66)"><path stroke-linecap="butt" transform="matrix(1.561666, 0, 0, 1.561666, 7.545315, 173.823244)" fill="none" stroke-linejoin="miter" d="M 14.000967 9.000425 C 14.000967 10.103513 13.10549 10.998991 11.9999 10.998991 C 10.89431 10.998991 9.998832 10.103513 9.998832 9.000425 C 9.998832 7.894835 10.89431 6.999357 11.9999 6.999357 C 13.10549 6.999357 14.000967 7.894835 14.000967 9.000425 Z M 14.000967 9.000425 " stroke="#1c274c" stroke-width="1.5" stroke-opacity="1" stroke-miterlimit="4"/></g><g clip-path="url(#0e35775674)"><path stroke-linecap="round" transform="matrix(1.561666, 0, 0, 1.561666, 7.545315, 173.823244)" fill="none" stroke-linejoin="miter" d="M 20.959679 15.498891 C 21.625034 16.101713 22.000234 16.782076 22.000234 17.499959 C 22.000234 18.425453 21.379903 19.285912 20.316836 19.998792 M 3.04012 15.498891 C 2.374765 16.101713 1.999565 16.782076 1.999565 17.499959 C 1.999565 19.986285 6.476954 21.999859 11.9999 21.999859 C 13.653282 21.999859 15.211613 21.819763 16.584846 21.499593 " stroke="#1c274c" stroke-width="1.5" stroke-opacity="1" stroke-miterlimit="4"/></g><path fill="#000000" d="M 20.820312 68.605469 C 16.660156 70.632812 13.792969 74.90625 13.792969 79.84375 C 13.792969 85.757812 17.898438 90.707031 23.414062 92.007812 C 23.421875 91.90625 23.433594 91.800781 23.441406 91.695312 C 23.542969 90.601562 23.554688 89.433594 23.363281 88.648438 C 23.1875 87.925781 22.71875 87.308594 22.039062 86.476562 C 22.019531 86.457031 22.003906 86.4375 21.988281 86.414062 C 21.6875 86.050781 21.332031 85.613281 21.046875 85.160156 C 20.738281 84.667969 20.433594 84.035156 20.386719 83.273438 C 20.320312 82.148438 20.816406 81.300781 21.363281 80.707031 C 21.832031 80.195312 22.433594 79.78125 22.863281 79.480469 C 22.894531 79.457031 22.925781 79.433594 22.957031 79.414062 C 23.476562 79.050781 23.753906 78.839844 23.90625 78.652344 C 23.921875 78.632812 23.929688 78.617188 23.9375 78.605469 C 23.832031 78.183594 23.609375 77.96875 22.9375 77.488281 C 22.902344 77.464844 22.863281 77.4375 22.824219 77.410156 C 22.164062 76.941406 21.109375 76.199219 20.597656 74.742188 C 19.871094 72.6875 20.324219 70.289062 20.820312 68.605469 Z M 24.863281 66.78125 L 24.863281 66.785156 L 24.847656 66.820312 C 24.832031 66.847656 24.808594 66.894531 24.777344 66.957031 C 24.722656 67.078125 24.640625 67.253906 24.546875 67.472656 C 25.117188 67.390625 25.695312 67.351562 26.285156 67.351562 C 29.84375 67.351562 33.054688 68.839844 35.332031 71.226562 C 35 71.4375 34.644531 71.6875 34.320312 71.96875 C 33.925781 72.304688 33.464844 72.777344 33.183594 73.375 C 32.636719 74.535156 32.875 75.734375 32.988281 76.324219 C 33.003906 76.398438 33.015625 76.460938 33.027344 76.515625 C 33.082031 76.84375 33.074219 76.953125 33.066406 76.996094 C 33.066406 77 33.066406 77 33.066406 77 C 33.0625 77.003906 33.058594 77.007812 33.050781 77.019531 C 33.042969 77.03125 33.023438 77.050781 32.996094 77.074219 C 32.960938 77.0625 32.921875 77.042969 32.871094 77.023438 C 32.839844 77.007812 32.800781 76.988281 32.761719 76.96875 C 32.265625 76.738281 31.101562 76.191406 29.714844 76.84375 C 28.96875 77.195312 28.523438 77.824219 28.257812 78.320312 C 27.984375 78.835938 27.808594 79.394531 27.695312 79.863281 C 27.578125 80.34375 27.507812 80.789062 27.46875 81.113281 C 27.449219 81.277344 27.4375 81.414062 27.429688 81.511719 C 27.421875 81.558594 27.421875 81.601562 27.417969 81.628906 L 27.417969 81.664062 L 27.414062 81.675781 L 27.414062 81.683594 C 27.414062 81.683594 27.414062 81.683594 28.972656 81.769531 L 27.414062 81.683594 C 27.375 82.398438 27.828125 83.050781 28.511719 83.261719 L 28.539062 83.269531 C 28.5625 83.28125 28.605469 83.292969 28.660156 83.3125 C 28.769531 83.351562 28.933594 83.414062 29.128906 83.5 C 29.53125 83.671875 30.03125 83.921875 30.496094 84.25 C 31.5 84.949219 31.847656 85.613281 31.675781 86.316406 C 31.570312 86.734375 31.191406 87.351562 30.421875 88.113281 C 29.6875 88.84375 28.742188 89.570312 27.777344 90.222656 C 27.382812 90.488281 26.992188 90.738281 26.621094 90.964844 C 26.664062 89.988281 26.632812 88.871094 26.398438 87.90625 C 26.035156 86.429688 25.117188 85.308594 24.492188 84.546875 C 24.480469 84.53125 24.46875 84.515625 24.453125 84.5 C 24.109375 84.074219 23.867188 83.78125 23.695312 83.503906 C 23.527344 83.238281 23.507812 83.117188 23.503906 83.078125 C 23.503906 83.066406 23.488281 83.007812 23.660156 82.824219 C 23.886719 82.578125 24.21875 82.34375 24.746094 81.972656 L 24.777344 81.953125 C 25.222656 81.644531 25.863281 81.195312 26.328125 80.621094 C 26.878906 79.945312 27.253906 79.015625 26.976562 77.886719 C 26.578125 76.25 25.46875 75.457031 24.761719 74.953125 L 24.75 74.945312 C 24.003906 74.414062 23.710938 74.183594 23.542969 73.703125 C 23.152344 72.601562 23.367188 70.984375 23.84375 69.394531 C 24.070312 68.648438 24.328125 67.984375 24.53125 67.507812 C 24.535156 67.496094 24.542969 67.484375 24.546875 67.472656 M 31.882812 91.015625 C 32.140625 90.792969 32.386719 90.566406 32.621094 90.332031 C 33.515625 89.441406 34.398438 88.328125 34.707031 87.0625 C 35.359375 84.402344 33.597656 82.605469 32.285156 81.6875 C 31.726562 81.296875 31.160156 80.996094 30.6875 80.777344 C 30.703125 80.71875 30.714844 80.660156 30.730469 80.601562 C 30.8125 80.265625 30.910156 79.984375 31.015625 79.785156 C 31.046875 79.730469 31.070312 79.6875 31.089844 79.664062 C 31.152344 79.683594 31.296875 79.738281 31.601562 79.875 C 31.878906 80 32.421875 80.238281 33.078125 80.234375 C 33.8125 80.230469 34.46875 79.933594 35.039062 79.433594 C 35.644531 78.910156 36 78.28125 36.132812 77.589844 C 36.253906 76.964844 36.171875 76.382812 36.105469 76 C 36.09375 75.925781 36.082031 75.859375 36.074219 75.796875 C 35.941406 75.027344 35.921875 74.894531 36.007812 74.707031 C 36.007812 74.707031 36.015625 74.695312 36.027344 74.679688 C 36.039062 74.65625 36.0625 74.628906 36.089844 74.59375 C 36.152344 74.523438 36.238281 74.4375 36.351562 74.339844 C 36.585938 74.140625 36.878906 73.9375 37.195312 73.75 C 38.203125 75.550781 38.777344 77.632812 38.777344 79.84375 C 38.777344 84.730469 35.972656 88.964844 31.882812 91.015625 Z M 39.035156 70.824219 C 40.839844 73.371094 41.902344 76.484375 41.902344 79.84375 C 41.902344 88.46875 34.910156 95.460938 26.285156 95.460938 C 17.660156 95.460938 10.667969 88.46875 10.667969 79.84375 C 10.667969 71.21875 17.660156 64.226562 26.285156 64.226562 C 31.53125 64.226562 36.171875 66.8125 39.003906 70.78125 C 39.015625 70.796875 39.023438 70.808594 39.035156 70.824219 Z M 31.070312 79.65625 C 31.042969 79.652344 31.039062 79.652344 31.039062 79.65625 C 31.039062 79.660156 31.042969 79.660156 31.042969 79.664062 C 31.046875 79.667969 31.046875 79.667969 31.046875 79.667969 C 31.054688 79.664062 31.0625 79.660156 31.070312 79.65625 Z M 31.070312 79.65625 " fill-opacity="1" fill-rule="evenodd"/><g clip-path="url(#d0b4ccf97f)"><path stroke-linecap="butt" transform="matrix(1.561667, 0, 0, 1.561667, 7.915183, 4.564068)" fill="none" stroke-linejoin="miter" d="M 3.000883 8.708641 C 3.000883 7.235356 3.000883 6.499963 3.393593 6.069734 C 3.531166 5.917153 3.701257 5.794587 3.891358 5.709542 C 4.421641 5.474416 5.122015 5.70704 6.52026 6.172289 C 7.585829 6.529979 8.121114 6.707574 8.658901 6.687563 C 8.856506 6.682561 9.054112 6.655046 9.246715 6.610022 C 9.771995 6.484955 10.239744 6.172289 11.175243 5.549456 L 12.558481 4.628965 C 13.75662 3.828539 14.35694 3.428325 15.044807 3.335776 C 15.732674 3.243226 16.41804 3.473349 17.783768 3.928592 L 18.94939 4.316299 C 19.939918 4.646475 20.432681 4.811563 20.717833 5.204272 C 21.000484 5.596982 21.000484 6.119761 21.000484 7.162817 L 21.000484 15.289652 C 21.000484 16.765439 21.000484 17.500831 20.607774 17.93106 C 20.4677 18.083642 20.297609 18.206207 20.110009 18.288751 C 19.577225 18.526378 18.879352 18.293754 17.481107 17.826004 C 16.413037 17.470815 15.880253 17.29322 15.339965 17.31073 C 15.142359 17.318234 14.944754 17.345748 14.752151 17.390772 C 14.226871 17.515839 13.759121 17.826004 12.823622 18.451338 L 11.442886 19.371829 C 10.242246 20.172256 9.641925 20.572469 8.954058 20.662517 C 8.266192 20.755067 7.583327 20.527445 6.215098 20.072202 L 5.051977 19.684496 C 4.061449 19.354319 3.566185 19.189231 3.283534 18.796522 C 3.000883 18.403813 3.000883 17.881034 3.000883 16.837977 Z M 3.000883 8.708641 " stroke="#000000" stroke-width="1.5" stroke-opacity="1" stroke-miterlimit="4"/></g><path stroke-linecap="butt" transform="matrix(1.561667, 0, 0, 1.561667, 7.915183, 4.564068)" fill="none" stroke-linejoin="miter" d="M 8.999083 6.637537 L 8.999083 20.499931 " stroke="#000000" stroke-width="1.5" stroke-opacity="1" stroke-miterlimit="4"/><path stroke-linecap="butt" transform="matrix(1.561667, 0, 0, 1.561667, 7.915183, 4.564068)" fill="none" stroke-linejoin="miter" d="M 14.999783 3.000597 L 14.999783 17.000564 " stroke="#000000" stroke-width="1.5" stroke-opacity="1" stroke-miterlimit="4"/><g clip-path="url(#06a3574374)"><path stroke-linecap="butt" transform="matrix(1.561667, 0, 0, 1.561667, 63.548322, 89.278722)" fill="none" stroke-linejoin="miter" d="M 19.95972 11.480241 C 19.95972 13.808983 19.02172 15.917608 17.500909 17.450926 C 16.933106 18.023731 16.282759 18.516494 15.57238 18.909203 C 14.359233 19.579561 12.96599 19.959764 11.480197 19.959764 C 6.7977 19.959764 3.000675 16.162739 3.000675 11.480241 C 3.000675 6.797744 6.7977 3.000718 11.480197 3.000718 C 16.162695 3.000718 19.95972 6.797744 19.95972 11.480241 Z M 19.95972 11.480241 " stroke="#333333" stroke-width="2" stroke-opacity="1" stroke-miterlimit="4"/></g><g clip-path="url(#69483d5deb)"><path stroke-linecap="round" transform="matrix(1.561667, 0, 0, 1.561667, 63.548322, 89.278722)" fill="none" stroke-linejoin="miter" d="M 18.156258 18.156302 L 21.888249 21.888292 " stroke="#333333" stroke-width="2" stroke-opacity="1" stroke-miterlimit="4"/></g><g clip-path="url(#b331380c9a)"><path stroke-linecap="round" transform="matrix(1.561666, 0, 0, 1.561666, 63.548322, 33.292981)" fill="none" stroke-linejoin="miter" d="M 5.874708 12.571699 C 5.309406 11.250994 4.999241 9.840242 4.999241 8.514534 C 4.999241 4.917616 8.133413 2.00106 12.000476 2.00106 C 15.865037 2.00106 18.999209 4.917616 18.999209 8.514534 C 18.999209 12.083938 16.765518 16.24866 13.281159 17.739455 C 12.468225 18.087141 11.532726 18.087141 10.719793 17.739455 C 9.606699 17.264202 8.621173 16.516303 7.795733 15.600814 " stroke="#1c274c" stroke-width="1.5" stroke-opacity="1" stroke-miterlimit="4"/></g><g clip-path="url(#59b4bd0232)"><path stroke-linecap="butt" transform="matrix(1.561666, 0, 0, 1.561666, 63.548322, 33.292981)" fill="none" stroke-linejoin="miter" d="M 13.999042 8.999793 C 13.999042 10.105383 13.103564 11.000861 12.000476 11.000861 C 10.894886 11.000861 9.999408 10.105383 9.999408 8.999793 C 9.999408 7.894203 10.894886 7.001227 12.000476 7.001227 C 13.103564 7.001227 13.999042 7.894203 13.999042 8.999793 Z M 13.999042 8.999793 " stroke="#1c274c" stroke-width="1.5" stroke-opacity="1" stroke-miterlimit="4"/></g><g clip-path="url(#4c3c589564)"><path stroke-linecap="round" transform="matrix(1.561666, 0, 0, 1.561666, 63.548322, 33.292981)" fill="none" stroke-linejoin="miter" d="M 20.960255 15.500761 C 21.62561 16.103583 22.00081 16.781444 22.00081 17.499327 C 22.00081 18.424821 21.380479 19.28528 20.314911 20.000662 M 3.040696 15.500761 C 2.375341 16.103583 2.000141 16.781444 2.000141 17.499327 C 2.000141 19.985654 6.47753 21.999228 12.000476 21.999228 C 13.653858 21.999228 15.212189 21.819132 16.585422 21.498961 " stroke="#1c274c" stroke-width="1.5" stroke-opacity="1" stroke-miterlimit="4"/></g><path fill="#000000" d="M 76.636719 209.492188 C 72.476562 211.519531 69.609375 215.789062 69.609375 220.730469 C 69.609375 226.640625 73.714844 231.59375 79.230469 232.890625 C 79.242188 232.789062 79.25 232.6875 79.261719 232.578125 C 79.359375 231.484375 79.371094 230.320312 79.179688 229.53125 C 79.003906 228.8125 78.535156 228.195312 77.855469 227.363281 C 77.839844 227.34375 77.820312 227.320312 77.804688 227.300781 C 77.507812 226.9375 77.148438 226.5 76.863281 226.046875 C 76.558594 225.554688 76.253906 224.917969 76.207031 224.15625 C 76.136719 223.035156 76.632812 222.183594 77.183594 221.589844 C 77.652344 221.082031 78.25 220.664062 78.683594 220.363281 C 78.714844 220.34375 78.746094 220.320312 78.777344 220.300781 C 79.296875 219.9375 79.570312 219.722656 79.722656 219.535156 C 79.738281 219.519531 79.75 219.503906 79.757812 219.492188 C 79.648438 219.070312 79.429688 218.855469 78.753906 218.375 C 78.71875 218.347656 78.679688 218.324219 78.644531 218.296875 C 77.980469 217.828125 76.925781 217.082031 76.414062 215.628906 C 75.6875 213.570312 76.144531 211.175781 76.636719 209.492188 Z M 80.683594 207.667969 L 80.679688 207.671875 L 80.664062 207.703125 C 80.648438 207.734375 80.625 207.78125 80.597656 207.84375 C 80.539062 207.960938 80.460938 208.136719 80.367188 208.355469 C 80.933594 208.277344 81.515625 208.238281 82.101562 208.238281 C 85.664062 208.238281 88.875 209.726562 91.148438 212.113281 C 90.816406 212.324219 90.464844 212.570312 90.136719 212.851562 C 89.742188 213.191406 89.285156 213.660156 89 214.261719 C 88.457031 215.417969 88.691406 216.621094 88.808594 217.207031 C 88.824219 217.28125 88.835938 217.347656 88.84375 217.398438 C 88.898438 217.726562 88.890625 217.839844 88.882812 217.882812 C 88.882812 217.882812 88.882812 217.886719 88.882812 217.886719 C 88.882812 217.886719 88.878906 217.894531 88.871094 217.902344 C 88.859375 217.914062 88.84375 217.933594 88.8125 217.960938 C 88.78125 217.945312 88.738281 217.929688 88.6875 217.90625 C 88.65625 217.894531 88.621094 217.875 88.578125 217.855469 C 88.082031 217.625 86.917969 217.078125 85.53125 217.730469 C 84.789062 218.082031 84.339844 218.707031 84.078125 219.203125 C 83.800781 219.71875 83.625 220.28125 83.511719 220.75 C 83.394531 221.226562 83.328125 221.675781 83.289062 222 C 83.269531 222.164062 83.253906 222.296875 83.246094 222.398438 C 83.242188 222.445312 83.238281 222.484375 83.238281 222.515625 L 83.234375 222.550781 L 83.234375 222.566406 C 83.234375 222.566406 83.234375 222.570312 84.792969 222.65625 L 83.234375 222.570312 C 83.191406 223.285156 83.644531 223.9375 84.332031 224.148438 L 84.355469 224.15625 C 84.382812 224.164062 84.421875 224.179688 84.476562 224.199219 C 84.589844 224.238281 84.753906 224.300781 84.949219 224.386719 C 85.347656 224.558594 85.851562 224.808594 86.316406 225.132812 C 87.320312 225.835938 87.664062 226.496094 87.492188 227.203125 C 87.390625 227.621094 87.007812 228.238281 86.238281 229 C 85.503906 229.730469 84.558594 230.453125 83.597656 231.105469 C 83.203125 231.371094 82.8125 231.621094 82.4375 231.851562 C 82.480469 230.871094 82.449219 229.757812 82.214844 228.792969 C 81.855469 227.3125 80.9375 226.195312 80.3125 225.433594 C 80.296875 225.414062 80.285156 225.398438 80.273438 225.382812 C 79.925781 224.960938 79.683594 224.664062 79.511719 224.386719 C 79.34375 224.121094 79.324219 224 79.324219 223.964844 C 79.320312 223.953125 79.308594 223.894531 79.476562 223.707031 C 79.703125 223.464844 80.035156 223.230469 80.566406 222.859375 L 80.597656 222.835938 C 81.039062 222.527344 81.679688 222.082031 82.148438 221.507812 C 82.695312 220.832031 83.070312 219.902344 82.796875 218.773438 C 82.398438 217.136719 81.285156 216.34375 80.578125 215.839844 L 80.566406 215.832031 C 79.824219 215.300781 79.527344 215.070312 79.359375 214.589844 C 78.972656 213.488281 79.183594 211.871094 79.660156 210.28125 C 79.886719 209.53125 80.144531 208.871094 80.351562 208.394531 C 80.355469 208.382812 80.359375 208.367188 80.367188 208.355469 M 87.703125 231.902344 C 87.957031 231.679688 88.203125 231.449219 88.441406 231.214844 C 89.335938 230.328125 90.214844 229.210938 90.527344 227.945312 C 91.175781 225.289062 89.414062 223.492188 88.105469 222.574219 C 87.546875 222.183594 86.980469 221.882812 86.507812 221.660156 C 86.519531 221.605469 86.53125 221.546875 86.546875 221.488281 C 86.628906 221.152344 86.726562 220.871094 86.832031 220.671875 C 86.863281 220.613281 86.890625 220.574219 86.90625 220.546875 C 86.972656 220.570312 87.113281 220.625 87.421875 220.761719 C 87.699219 220.882812 88.238281 221.125 88.894531 221.121094 C 89.628906 221.117188 90.285156 220.820312 90.859375 220.320312 C 91.460938 219.792969 91.816406 219.167969 91.949219 218.476562 C 92.070312 217.851562 91.988281 217.265625 91.925781 216.882812 C 91.914062 216.8125 91.902344 216.746094 91.890625 216.683594 C 91.761719 215.910156 91.738281 215.78125 91.828125 215.589844 C 91.828125 215.589844 91.832031 215.582031 91.84375 215.5625 C 91.859375 215.542969 91.878906 215.515625 91.910156 215.480469 C 91.96875 215.410156 92.054688 215.320312 92.171875 215.222656 C 92.402344 215.023438 92.699219 214.820312 93.011719 214.632812 C 94.019531 216.4375 94.597656 218.515625 94.597656 220.730469 C 94.597656 225.617188 91.789062 229.847656 87.703125 231.902344 Z M 94.851562 211.710938 C 96.660156 214.257812 97.71875 217.371094 97.71875 220.730469 C 97.71875 229.355469 90.726562 236.347656 82.101562 236.347656 C 73.480469 236.347656 66.488281 229.355469 66.488281 220.730469 C 66.488281 212.105469 73.480469 205.113281 82.101562 205.113281 C 87.347656 205.113281 91.992188 207.699219 94.820312 211.667969 C 94.832031 211.679688 94.84375 211.695312 94.851562 211.710938 Z M 86.886719 220.542969 C 86.863281 220.535156 86.859375 220.539062 86.859375 220.542969 C 86.859375 220.546875 86.859375 220.546875 86.859375 220.550781 C 86.859375 220.550781 86.863281 220.550781 86.863281 220.550781 C 86.863281 220.550781 86.863281 220.554688 86.863281 220.554688 C 86.871094 220.550781 86.878906 220.546875 86.886719 220.542969 Z M 86.886719 220.542969 " fill-opacity="1" fill-rule="evenodd"/><g clip-path="url(#6213cc85f6)"><path stroke-linecap="butt" transform="matrix(1.561667, 0, 0, 1.561667, 63.548322, 145.449392)" fill="none" stroke-linejoin="miter" d="M 3.000675 8.709534 C 3.000675 7.236249 3.000675 6.498355 3.393384 6.068125 C 3.530957 5.915544 3.701048 5.79548 3.89115 5.710435 C 4.421432 5.475309 5.121806 5.707933 6.520052 6.173182 C 7.58562 6.528371 8.120906 6.705966 8.658692 6.688456 C 8.856298 6.680952 9.053903 6.655939 9.246506 6.608414 C 9.771786 6.485848 10.239536 6.173182 11.175035 5.550349 L 12.558272 4.627357 C 13.756411 3.829431 14.356732 3.429218 15.044598 3.336669 C 15.732465 3.244119 16.417831 3.471741 17.783559 3.926983 L 18.949181 4.317192 C 19.939709 4.647368 20.432472 4.812456 20.717624 5.205165 C 21.000275 5.597875 21.000275 6.118152 21.000275 7.161208 L 21.000275 15.290544 C 21.000275 16.76383 21.000275 17.501724 20.607566 17.929452 C 20.467491 18.084535 20.2974 18.204599 20.1098 18.289644 C 19.577016 18.524769 18.879144 18.292145 17.480898 17.826897 C 16.412828 17.471708 15.880044 17.294113 15.339756 17.311622 C 15.142151 17.319126 14.947046 17.34414 14.754444 17.391665 C 14.229164 17.51423 13.758913 17.826897 12.823414 18.449729 L 11.442677 19.372722 C 10.242037 20.170647 9.644218 20.570861 8.95385 20.66341 C 8.265983 20.755959 7.583119 20.528338 6.214889 20.073095 L 5.051769 19.682887 C 4.06124 19.352711 3.565976 19.187623 3.283325 18.794914 C 3.000675 18.402204 3.000675 17.881927 3.000675 16.83887 Z M 3.000675 8.709534 " stroke="#000000" stroke-width="1.5" stroke-opacity="1" stroke-miterlimit="4"/></g><path stroke-linecap="butt" transform="matrix(1.561667, 0, 0, 1.561667, 63.548322, 145.449392)" fill="none" stroke-linejoin="miter" d="M 8.998874 6.63843 L 8.998874 20.500823 " stroke="#000000" stroke-width="1.5" stroke-opacity="1" stroke-miterlimit="4"/><path stroke-linecap="butt" transform="matrix(1.561667, 0, 0, 1.561667, 63.548322, 145.449392)" fill="none" stroke-linejoin="miter" d="M 14.999574 2.998988 L 14.999574 16.998956 " stroke="#000000" stroke-width="1.5" stroke-opacity="1" stroke-miterlimit="4"/><g clip-path="url(#b77dd725ca)"><path stroke-linecap="butt" transform="matrix(1.561667, 0, 0, 1.561667, 120.088867, 173.823244)" fill="none" stroke-linejoin="miter" d="M 19.961272 11.479246 C 19.961272 13.81049 19.023271 15.916613 17.50246 17.452432 C 16.932156 18.025238 16.28431 18.518001 15.57143 18.91071 C 14.358283 19.578566 12.96504 19.96127 11.479248 19.96127 C 6.79675 19.96127 2.999725 16.164245 2.999725 11.479246 C 2.999725 6.796749 6.79675 2.999724 11.479248 2.999724 C 16.164246 2.999724 19.961272 6.796749 19.961272 11.479246 Z M 19.961272 11.479246 " stroke="#333333" stroke-width="2" stroke-opacity="1" stroke-miterlimit="4"/></g><g clip-path="url(#5d7d8ac5cf)"><path stroke-linecap="round" transform="matrix(1.561667, 0, 0, 1.561667, 120.088867, 173.823244)" fill="none" stroke-linejoin="miter" d="M 18.155308 18.155307 L 21.887299 21.887298 " stroke="#333333" stroke-width="2" stroke-opacity="1" stroke-miterlimit="4"/></g><g clip-path="url(#c2fa8bb7a2)"><path stroke-linecap="butt" transform="matrix(1.561667, 0, 0, 1.561667, 119.339267, 117.460233)" fill="none" stroke-linejoin="miter" d="M 2.999469 8.710097 C 2.999469 7.236811 2.999469 6.498917 3.392178 6.068688 C 3.532253 5.916107 3.702344 5.793541 3.889944 5.710997 C 4.422728 5.47337 5.1206 5.705995 6.518846 6.173744 C 7.586916 6.528933 8.1197 6.706528 8.659988 6.689019 C 8.857593 6.681515 9.055199 6.654 9.247801 6.608976 C 9.773082 6.486411 10.240831 6.173744 11.17633 5.54841 L 12.557066 4.62792 C 13.757707 3.827493 14.358027 3.42978 15.045894 3.337231 C 15.733761 3.244682 16.416625 3.472303 17.784855 3.927546 L 18.947975 4.315253 C 19.938503 4.645429 20.433768 4.810517 20.716418 5.203226 C 20.999069 5.595936 20.999069 6.118715 20.999069 7.161771 L 20.999069 15.291107 C 20.999069 16.764393 20.999069 17.499785 20.60636 17.930014 C 20.468786 18.082596 20.298696 18.205161 20.108594 18.290207 C 19.578311 18.525332 18.877938 18.292708 17.482193 17.82746 C 16.414124 17.47227 15.88134 17.292174 15.341051 17.312185 C 15.143446 17.319689 14.945841 17.344702 14.753238 17.389726 C 14.227958 17.514793 13.760208 17.82746 12.824709 18.450292 L 11.441471 19.373284 C 10.243332 20.17121 9.643012 20.571423 8.955145 20.663973 C 8.267278 20.756522 7.584414 20.528901 6.216184 20.071156 L 5.050563 19.68345 C 4.062536 19.353274 3.567272 19.188185 3.282119 18.795476 C 2.999469 18.402767 2.999469 17.882489 2.999469 16.836931 Z M 2.999469 8.710097 " stroke="#000000" stroke-width="1.5" stroke-opacity="1" stroke-miterlimit="4"/></g><path stroke-linecap="butt" transform="matrix(1.561667, 0, 0, 1.561667, 119.339267, 117.460233)" fill="none" stroke-linejoin="miter" d="M 9.000169 6.638992 L 9.000169 20.498885 " stroke="#000000" stroke-width="1.5" stroke-opacity="1" stroke-miterlimit="4"/><path stroke-linecap="butt" transform="matrix(1.561667, 0, 0, 1.561667, 119.339267, 117.460233)" fill="none" stroke-linejoin="miter" d="M 15.00087 2.999551 L 15.00087 16.999518 " stroke="#000000" stroke-width="1.5" stroke-opacity="1" stroke-miterlimit="4"/><g clip-path="url(#577f856766)"><path stroke-linecap="round" transform="matrix(1.561666, 0, 0, 1.561666, 119.339267, 61.47448)" fill="none" stroke-linejoin="miter" d="M 5.876003 12.57304 C 5.308201 11.249834 5.000536 9.841583 5.000536 8.515876 C 5.000536 4.916456 8.134708 1.9999 11.99927 1.9999 C 15.866333 1.9999 19.000505 4.916456 19.000505 8.515876 C 19.000505 12.08528 16.766813 16.250002 13.279953 17.740797 C 12.467019 18.085981 11.53152 18.085981 10.721088 17.740797 C 9.605493 17.263042 8.619967 16.515143 7.794527 15.599655 " stroke="#1c274c" stroke-width="1.5" stroke-opacity="1" stroke-miterlimit="4"/></g><g clip-path="url(#8e0ca81228)"><path stroke-linecap="butt" transform="matrix(1.561666, 0, 0, 1.561666, 119.339267, 61.47448)" fill="none" stroke-linejoin="miter" d="M 14.000337 9.001135 C 14.000337 10.104223 13.10486 10.999701 11.99927 10.999701 C 10.896181 10.999701 10.000704 10.104223 10.000704 9.001135 C 10.000704 7.895545 10.896181 7.000067 11.99927 7.000067 C 13.10486 7.000067 14.000337 7.895545 14.000337 9.001135 Z M 14.000337 9.001135 " stroke="#1c274c" stroke-width="1.5" stroke-opacity="1" stroke-miterlimit="4"/></g><g clip-path="url(#4390653c1a)"><path stroke-linecap="round" transform="matrix(1.561666, 0, 0, 1.561666, 119.339267, 61.47448)" fill="none" stroke-linejoin="miter" d="M 20.961551 15.499601 C 21.626906 16.102423 21.999604 16.782786 21.999604 17.500669 C 21.999604 18.426162 21.379274 19.28412 20.316206 19.999502 M 3.03949 15.499601 C 2.374135 16.102423 1.998935 16.782786 1.998935 17.500669 C 1.998935 19.984494 6.476324 22.000569 11.99927 22.000569 C 13.652652 22.000569 15.210983 21.820473 16.586717 21.500302 " stroke="#1c274c" stroke-width="1.5" stroke-opacity="1" stroke-miterlimit="4"/></g><path fill="#000000" d="M 132.058594 12.621094 C 127.898438 14.648438 125.03125 18.917969 125.03125 23.859375 C 125.03125 29.769531 129.136719 34.722656 134.652344 36.019531 C 134.664062 35.917969 134.671875 35.816406 134.683594 35.707031 C 134.78125 34.613281 134.792969 33.449219 134.601562 32.660156 C 134.425781 31.941406 133.957031 31.324219 133.277344 30.492188 C 133.261719 30.472656 133.242188 30.449219 133.226562 30.429688 C 132.929688 30.066406 132.570312 29.628906 132.285156 29.175781 C 131.976562 28.683594 131.675781 28.046875 131.628906 27.285156 C 131.558594 26.164062 132.054688 25.3125 132.605469 24.71875 C 133.074219 24.210938 133.671875 23.792969 134.101562 23.492188 C 134.136719 23.472656 134.167969 23.449219 134.195312 23.429688 C 134.714844 23.066406 134.992188 22.851562 135.144531 22.664062 C 135.160156 22.648438 135.171875 22.632812 135.179688 22.621094 C 135.070312 22.199219 134.847656 21.984375 134.175781 21.503906 C 134.140625 21.476562 134.101562 21.453125 134.0625 21.425781 C 133.402344 20.957031 132.347656 20.210938 131.835938 18.757812 C 131.109375 16.699219 131.5625 14.304688 132.058594 12.621094 Z M 136.101562 10.796875 L 136.101562 10.800781 L 136.085938 10.832031 C 136.070312 10.863281 136.046875 10.910156 136.019531 10.972656 C 135.960938 11.089844 135.882812 11.265625 135.785156 11.484375 C 136.355469 11.40625 136.933594 11.367188 137.523438 11.367188 C 141.082031 11.367188 144.296875 12.855469 146.570312 15.242188 C 146.238281 15.453125 145.886719 15.699219 145.558594 15.980469 C 145.164062 16.320312 144.703125 16.789062 144.421875 17.390625 C 143.875 18.546875 144.113281 19.75 144.230469 20.335938 C 144.242188 20.410156 144.257812 20.476562 144.265625 20.527344 C 144.320312 20.855469 144.3125 20.96875 144.304688 21.011719 C 144.304688 21.011719 144.304688 21.015625 144.304688 21.015625 C 144.300781 21.015625 144.296875 21.023438 144.292969 21.03125 C 144.28125 21.042969 144.261719 21.0625 144.234375 21.089844 C 144.203125 21.074219 144.160156 21.058594 144.109375 21.035156 C 144.078125 21.023438 144.042969 21.003906 144 20.984375 C 143.503906 20.753906 142.339844 20.207031 140.953125 20.859375 C 140.207031 21.210938 139.761719 21.835938 139.496094 22.332031 C 139.222656 22.847656 139.046875 23.410156 138.933594 23.878906 C 138.816406 24.355469 138.75 24.804688 138.707031 25.128906 C 138.6875 25.292969 138.675781 25.425781 138.667969 25.527344 C 138.664062 25.574219 138.660156 25.613281 138.65625 25.644531 L 138.65625 25.695312 C 138.65625 25.695312 138.65625 25.699219 140.214844 25.785156 L 138.65625 25.699219 C 138.613281 26.414062 139.066406 27.066406 139.753906 27.277344 L 139.777344 27.285156 C 139.804688 27.292969 139.84375 27.308594 139.898438 27.328125 C 140.011719 27.367188 140.171875 27.429688 140.371094 27.515625 C 140.769531 27.6875 141.273438 27.9375 141.734375 28.261719 C 142.738281 28.964844 143.085938 29.625 142.914062 30.332031 C 142.8125 30.75 142.429688 31.367188 141.660156 32.128906 C 140.925781 32.859375 139.980469 33.582031 139.015625 34.234375 C 138.625 34.5 138.234375 34.75 137.859375 34.980469 C 137.902344 34 137.871094 32.886719 137.636719 31.921875 C 137.277344 30.441406 136.359375 29.324219 135.734375 28.5625 C 135.71875 28.542969 135.707031 28.527344 135.695312 28.511719 C 135.347656 28.089844 135.105469 27.792969 134.933594 27.515625 C 134.765625 27.25 134.746094 27.128906 134.746094 27.09375 C 134.742188 27.082031 134.730469 27.023438 134.898438 26.835938 C 135.125 26.59375 135.457031 26.359375 135.984375 25.988281 L 136.015625 25.964844 C 136.460938 25.65625 137.101562 25.210938 137.570312 24.636719 C 138.117188 23.960938 138.492188 23.03125 138.21875 21.902344 C 137.820312 20.265625 136.707031 19.472656 136 18.96875 L 135.988281 18.960938 C 135.242188 18.429688 134.949219 18.199219 134.78125 17.71875 C 134.390625 16.617188 134.605469 15 135.082031 13.410156 C 135.308594 12.660156 135.566406 12 135.769531 11.523438 C 135.777344 11.511719 135.78125 11.496094 135.785156 11.484375 M 143.121094 35.03125 C 143.378906 34.808594 143.625 34.578125 143.859375 34.34375 C 144.753906 33.457031 145.636719 32.339844 145.945312 31.074219 C 146.597656 28.417969 144.835938 26.621094 143.527344 25.703125 C 142.96875 25.3125 142.398438 25.011719 141.929688 24.789062 C 141.941406 24.734375 141.953125 24.675781 141.96875 24.617188 C 142.050781 24.28125 142.148438 24 142.253906 23.800781 C 142.285156 23.742188 142.3125 23.703125 142.328125 23.675781 C 142.394531 23.699219 142.535156 23.753906 142.84375 23.890625 C 143.117188 24.011719 143.660156 24.253906 144.316406 24.25 C 145.050781 24.246094 145.707031 23.949219 146.28125 23.449219 C 146.882812 22.921875 147.238281 22.296875 147.371094 21.605469 C 147.492188 20.980469 147.410156 20.394531 147.34375 20.011719 C 147.332031 19.941406 147.324219 19.875 147.3125 19.8125 C 147.183594 19.039062 147.160156 18.910156 147.25 18.71875 C 147.25 18.71875 147.253906 18.710938 147.265625 18.691406 C 147.277344 18.671875 147.300781 18.644531 147.328125 18.609375 C 147.390625 18.539062 147.476562 18.449219 147.589844 18.351562 C 147.824219 18.152344 148.121094 17.949219 148.433594 17.761719 C 149.441406 19.566406 150.019531 21.644531 150.019531 23.859375 C 150.019531 28.746094 147.210938 32.976562 143.121094 35.03125 Z M 150.273438 14.839844 C 152.078125 17.386719 153.140625 20.5 153.140625 23.859375 C 153.140625 32.484375 146.148438 39.476562 137.523438 39.476562 C 128.898438 39.476562 121.90625 32.484375 121.90625 23.859375 C 121.90625 15.234375 128.898438 8.242188 137.523438 8.242188 C 142.769531 8.242188 147.410156 10.828125 150.242188 14.796875 C 150.253906 14.808594 150.265625 14.824219 150.273438 14.839844 Z M 142.308594 23.671875 C 142.285156 23.664062 142.277344 23.667969 142.28125 23.671875 C 142.28125 23.675781 142.28125 23.675781 142.28125 23.679688 C 142.285156 23.679688 142.285156 23.683594 142.285156 23.683594 C 142.292969 23.679688 142.300781 23.675781 142.308594 23.671875 Z M 142.308594 23.671875 " fill-opacity="1" fill-rule="evenodd"/><g clip-path="url(#4591b80ed3)"><path stroke-linecap="round" transform="matrix(1.561666, 0, 0, 1.561666, 174.575413, 202.455985)" fill="none" stroke-linejoin="miter" d="M 5.874869 12.572376 C 5.309568 11.24917 4.999402 9.840919 4.999402 8.515212 C 4.999402 4.915792 8.133574 1.999236 12.000637 1.999236 C 15.865199 1.999236 18.999371 4.915792 18.999371 8.515212 C 18.999371 12.084616 16.765679 16.249338 13.28132 17.740133 C 12.468387 18.087818 11.532888 18.087818 10.719954 17.740133 C 9.60686 17.264879 8.621335 16.514479 7.795894 15.598991 " stroke="#1c274c" stroke-width="1.5" stroke-opacity="1" stroke-miterlimit="4"/></g><g clip-path="url(#87fc34e9fc)"><path stroke-linecap="butt" transform="matrix(1.561666, 0, 0, 1.561666, 174.575413, 202.455985)" fill="none" stroke-linejoin="miter" d="M 13.999203 9.000471 C 13.999203 10.103559 13.103726 10.999037 12.000637 10.999037 C 10.895047 10.999037 9.99957 10.103559 9.99957 9.000471 C 9.99957 7.894881 10.895047 6.999403 12.000637 6.999403 C 13.103726 6.999403 13.999203 7.894881 13.999203 9.000471 Z M 13.999203 9.000471 " stroke="#1c274c" stroke-width="1.5" stroke-opacity="1" stroke-miterlimit="4"/></g><g clip-path="url(#c2c01d75cd)"><path stroke-linecap="round" transform="matrix(1.561666, 0, 0, 1.561666, 174.575413, 202.455985)" fill="none" stroke-linejoin="miter" d="M 20.960417 15.498937 C 21.625772 16.101759 22.000972 16.782122 22.000972 17.500005 C 22.000972 18.425498 21.380641 19.285957 20.315073 19.998838 M 3.038356 15.498937 C 2.373001 16.101759 2.000303 16.782122 2.000303 17.500005 C 2.000303 19.986331 6.477691 21.999905 12.000637 21.999905 C 13.654019 21.999905 15.212351 21.819809 16.585583 21.499638 " stroke="#1c274c" stroke-width="1.5" stroke-opacity="1" stroke-miterlimit="4"/></g><g clip-path="url(#1116ebdbb9)"><path stroke-linecap="butt" transform="matrix(1.561667, 0, 0, 1.561667, 174.575413, 89.278722)" fill="none" stroke-linejoin="miter" d="M 19.959882 11.480241 C 19.959882 13.808983 19.021881 15.917608 17.50107 17.450926 C 16.933267 18.023731 16.28292 18.516494 15.572541 18.909203 C 14.359394 19.579561 12.966151 19.959764 11.480359 19.959764 C 6.797861 19.959764 3.000836 16.162739 3.000836 11.480241 C 3.000836 6.797744 6.797861 3.000718 11.480359 3.000718 C 16.162856 3.000718 19.959882 6.797744 19.959882 11.480241 Z M 19.959882 11.480241 " stroke="#333333" stroke-width="2" stroke-opacity="1" stroke-miterlimit="4"/></g><g clip-path="url(#4a37d64a85)"><path stroke-linecap="round" transform="matrix(1.561667, 0, 0, 1.561667, 174.575413, 89.278722)" fill="none" stroke-linejoin="miter" d="M 18.15642 18.156302 L 21.885909 21.888292 " stroke="#333333" stroke-width="2" stroke-opacity="1" stroke-miterlimit="4"/></g><path fill="#000000" d="M 187.480469 152.953125 C 183.320312 154.980469 180.453125 159.25 180.453125 164.1875 C 180.453125 170.101562 184.558594 175.054688 190.074219 176.351562 C 190.082031 176.25 190.09375 176.144531 190.101562 176.039062 C 190.203125 174.945312 190.214844 173.777344 190.023438 172.992188 C 189.847656 172.269531 189.378906 171.652344 188.699219 170.820312 C 188.679688 170.800781 188.664062 170.78125 188.648438 170.757812 C 188.351562 170.398438 187.992188 169.960938 187.707031 169.503906 C 187.398438 169.015625 187.097656 168.378906 187.046875 167.617188 C 186.980469 166.492188 187.476562 165.644531 188.023438 165.050781 C 188.492188 164.542969 189.09375 164.125 189.523438 163.824219 C 189.554688 163.800781 189.585938 163.78125 189.617188 163.757812 C 190.136719 163.394531 190.414062 163.183594 190.566406 162.996094 C 190.582031 162.976562 190.589844 162.964844 190.597656 162.953125 C 190.492188 162.527344 190.269531 162.3125 189.597656 161.832031 C 189.5625 161.808594 189.523438 161.78125 189.484375 161.753906 C 188.824219 161.289062 187.769531 160.542969 187.257812 159.085938 C 186.53125 157.03125 186.984375 154.636719 187.480469 152.953125 Z M 191.523438 151.128906 L 191.523438 151.132812 L 191.507812 151.164062 C 191.492188 151.191406 191.46875 151.242188 191.4375 151.304688 C 191.382812 151.421875 191.300781 151.597656 191.207031 151.816406 C 191.777344 151.738281 192.355469 151.695312 192.945312 151.695312 C 196.503906 151.695312 199.714844 153.183594 201.992188 155.574219 C 201.660156 155.785156 201.304688 156.03125 200.980469 156.3125 C 200.585938 156.648438 200.125 157.121094 199.84375 157.71875 C 199.296875 158.878906 199.535156 160.082031 199.648438 160.667969 C 199.664062 160.742188 199.675781 160.804688 199.6875 160.859375 C 199.742188 161.1875 199.734375 161.300781 199.726562 161.34375 C 199.722656 161.347656 199.71875 161.355469 199.710938 161.363281 C 199.703125 161.375 199.683594 161.394531 199.65625 161.417969 C 199.625 161.40625 199.582031 161.390625 199.53125 161.367188 C 199.5 161.351562 199.460938 161.335938 199.421875 161.316406 C 198.925781 161.082031 197.761719 160.535156 196.375 161.1875 C 195.628906 161.539062 195.183594 162.167969 194.917969 162.664062 C 194.644531 163.179688 194.46875 163.738281 194.355469 164.207031 C 194.238281 164.6875 194.167969 165.136719 194.128906 165.457031 C 194.109375 165.621094 194.097656 165.757812 194.089844 165.855469 C 194.085938 165.90625 194.082031 165.945312 194.078125 165.972656 L 194.078125 166.007812 L 194.074219 166.019531 L 194.074219 166.027344 C 194.074219 166.027344 194.074219 166.027344 195.632812 166.117188 L 194.074219 166.027344 C 194.035156 166.746094 194.488281 167.394531 195.171875 167.609375 L 195.199219 167.617188 C 195.222656 167.625 195.265625 167.636719 195.320312 167.65625 C 195.429688 167.699219 195.59375 167.761719 195.792969 167.84375 C 196.191406 168.015625 196.691406 168.269531 197.15625 168.59375 C 198.160156 169.296875 198.507812 169.957031 198.335938 170.664062 C 198.230469 171.082031 197.851562 171.695312 197.082031 172.460938 C 196.347656 173.191406 195.402344 173.914062 194.4375 174.566406 C 194.042969 174.832031 193.652344 175.082031 193.28125 175.3125 C 193.324219 174.332031 193.292969 173.214844 193.058594 172.253906 C 192.695312 170.773438 191.777344 169.652344 191.15625 168.890625 C 191.140625 168.875 191.128906 168.859375 191.113281 168.84375 C 190.769531 168.421875 190.527344 168.125 190.355469 167.847656 C 190.1875 167.582031 190.167969 167.460938 190.164062 167.425781 C 190.164062 167.425781 190.164062 167.421875 190.164062 167.421875 C 190.164062 167.410156 190.148438 167.351562 190.320312 167.167969 C 190.546875 166.921875 190.878906 166.6875 191.40625 166.320312 L 191.4375 166.296875 C 191.882812 165.988281 192.523438 165.539062 192.988281 164.964844 C 193.539062 164.289062 193.914062 163.359375 193.636719 162.234375 C 193.238281 160.59375 192.128906 159.800781 191.421875 159.296875 L 191.410156 159.289062 C 190.664062 158.761719 190.371094 158.527344 190.203125 158.046875 C 189.8125 156.949219 190.027344 155.328125 190.503906 153.742188 C 190.730469 152.992188 190.988281 152.328125 191.191406 151.851562 C 191.195312 151.839844 191.203125 151.828125 191.207031 151.816406 M 198.542969 175.363281 C 198.800781 175.136719 199.046875 174.910156 199.28125 174.675781 C 200.175781 173.789062 201.058594 172.671875 201.367188 171.40625 C 202.019531 168.75 200.257812 166.949219 198.945312 166.035156 C 198.386719 165.644531 197.820312 165.339844 197.347656 165.121094 C 197.363281 165.0625 197.375 165.003906 197.390625 164.949219 C 197.472656 164.613281 197.570312 164.328125 197.675781 164.132812 C 197.707031 164.074219 197.730469 164.035156 197.75 164.007812 C 197.8125 164.027344 197.957031 164.085938 198.261719 164.222656 C 198.539062 164.34375 199.082031 164.582031 199.738281 164.578125 C 200.472656 164.574219 201.128906 164.277344 201.703125 163.78125 C 202.304688 163.253906 202.660156 162.625 202.792969 161.9375 C 202.914062 161.308594 202.832031 160.726562 202.765625 160.34375 C 202.753906 160.273438 202.742188 160.203125 202.734375 160.140625 C 202.601562 159.371094 202.582031 159.238281 202.667969 159.050781 C 202.667969 159.050781 202.675781 159.042969 202.6875 159.023438 C 202.699219 159.003906 202.722656 158.972656 202.75 158.9375 C 202.8125 158.867188 202.898438 158.78125 203.011719 158.683594 C 203.246094 158.484375 203.539062 158.28125 203.855469 158.09375 C 204.863281 159.898438 205.4375 161.976562 205.4375 164.1875 C 205.4375 169.078125 202.632812 173.308594 198.542969 175.363281 Z M 205.695312 155.167969 C 207.5 157.714844 208.5625 160.828125 208.5625 164.1875 C 208.5625 172.8125 201.570312 179.804688 192.945312 179.804688 C 184.320312 179.804688 177.328125 172.8125 177.328125 164.1875 C 177.328125 155.566406 184.320312 148.574219 192.945312 148.574219 C 198.191406 148.574219 202.832031 151.160156 205.664062 155.125 C 205.675781 155.140625 205.683594 155.15625 205.695312 155.167969 Z M 197.730469 164.003906 C 197.703125 163.996094 197.699219 164 197.699219 164.003906 C 197.699219 164.003906 197.703125 164.007812 197.703125 164.007812 C 197.703125 164.007812 197.703125 164.007812 197.703125 164.011719 C 197.707031 164.011719 197.707031 164.015625 197.707031 164.015625 C 197.714844 164.011719 197.722656 164.007812 197.730469 164.003906 Z M 197.730469 164.003906 " fill-opacity="1" fill-rule="evenodd"/><g clip-path="url(#34dd90a5fc)"><path stroke-linecap="round" transform="matrix(1.561666, 0, 0, 1.561666, 170.908785, 33.292981)" fill="none" stroke-linejoin="miter" d="M 5.874011 12.571699 C 5.308709 11.250994 5.001045 9.840242 5.001045 8.514534 C 5.001045 4.917616 8.135217 2.00106 11.999779 2.00106 C 15.866842 2.00106 19.001013 4.917616 19.001013 8.514534 C 19.001013 12.083938 16.764821 16.24866 13.280462 17.739455 C 12.467528 18.087141 11.532029 18.087141 10.719095 17.739455 C 9.606002 17.264202 8.620476 16.516303 7.795036 15.600814 " stroke="#1c274c" stroke-width="1.5" stroke-opacity="1" stroke-miterlimit="4"/></g><g clip-path="url(#8adbf8e29d)"><path stroke-linecap="butt" transform="matrix(1.561666, 0, 0, 1.561666, 170.908785, 33.292981)" fill="none" stroke-linejoin="miter" d="M 14.000846 8.999793 C 14.000846 10.105383 13.105368 11.000861 11.999779 11.000861 C 10.894189 11.000861 10.001213 10.105383 10.001213 8.999793 C 10.001213 7.894203 10.894189 7.001227 11.999779 7.001227 C 13.105368 7.001227 14.000846 7.894203 14.000846 8.999793 Z M 14.000846 8.999793 " stroke="#1c274c" stroke-width="1.5" stroke-opacity="1" stroke-miterlimit="4"/></g><g clip-path="url(#0b290dfb6e)"><path stroke-linecap="round" transform="matrix(1.561666, 0, 0, 1.561666, 170.908785, 33.292981)" fill="none" stroke-linejoin="miter" d="M 20.959558 15.500761 C 21.624913 16.103583 22.000113 16.781444 22.000113 17.499327 C 22.000113 18.424821 21.379782 19.28528 20.316715 20.000662 M 3.039999 15.500761 C 2.374644 16.103583 1.999444 16.781444 1.999444 17.499327 C 1.999444 19.985654 6.476832 21.999228 11.999779 21.999228 C 13.653161 21.999228 15.211492 21.819132 16.584724 21.498961 " stroke="#1c274c" stroke-width="1.5" stroke-opacity="1" stroke-miterlimit="4"/></g></svg>